<svg width="222" height="88" viewBox="0 0 222 88" fill="none" xmlns="http://www.w3.org/2000/svg">
<path d="M0.56 23.152L1.584 0.367996H71.728L72.752 23.152H65.328L62.512 6.768H42.928C42.8427 12.2293 42.7573 17.7333 42.672 23.28C42.672 28.8267 42.672 34.416 42.672 40.048V46.32C42.672 51.7813 42.672 57.2853 42.672 62.832C42.7573 68.2933 42.8427 73.7973 42.928 79.344L55.984 80.752V86H17.328V80.752L30.384 79.344C30.5547 73.8827 30.64 68.4213 30.64 62.96C30.64 57.4133 30.64 51.8667 30.64 46.32V40.048C30.64 34.5013 30.64 28.9547 30.64 23.408C30.64 17.8613 30.5547 12.3147 30.384 6.768H10.8L7.984 23.152H0.56ZM84.075 87.664C81.515 87.664 79.339 86.768 77.547 84.976C75.8403 83.184 74.987 81.0507 74.987 78.576C74.987 76.016 75.8403 73.84 77.547 72.048C79.339 70.256 81.515 69.36 84.075 69.36C86.635 69.36 88.7683 70.256 90.475 72.048C92.267 73.84 93.163 76.016 93.163 78.576C93.163 81.0507 92.267 83.184 90.475 84.976C88.7683 86.768 86.635 87.664 84.075 87.664ZM161.362 5.616V0.367996H192.21V5.616L181.33 7.28V86.896H176.85L125.65 17.136V78.96L139.218 80.752V86H108.242V80.752L119.122 79.216V8.17599L117.97 6.64L108.882 5.616V0.367996H128.594L174.802 63.856V7.28L161.362 5.616ZM212.575 87.664C210.015 87.664 207.839 86.768 206.047 84.976C204.34 83.184 203.487 81.0507 203.487 78.576C203.487 76.016 204.34 73.84 206.047 72.048C207.839 70.256 210.015 69.36 212.575 69.36C215.135 69.36 217.268 70.256 218.975 72.048C220.767 73.84 221.663 76.016 221.663 78.576C221.663 81.0507 220.767 83.184 218.975 84.976C217.268 86.768 215.135 87.664 212.575 87.664Z" fill="url(#paint0_linear_402_3)"/>
<defs>
<linearGradient id="paint0_linear_402_3" x1="120.5" y1="-31" x2="120.5" y2="122" gradientUnits="userSpaceOnUse">
<stop stop-color="#3EDDBB"/>
<stop offset="1" stop-color="#217764"/>
</linearGradient>
</defs>
</svg>
